# xmcd
#
# Track frame offsets:
#	183
#	9983
#	25458
#	41633
#	56533
#	66333
#	75883
#	87083
#	97733
#	110883
#	123083
#	137758
#	151308
#
# Disc length: 2209
#
# Revision: 4
# Processed by: cddbd v1.5.1PL0 Copyright (c) Steve Scherf et al.
# Submitted via: EasyCDDAExtractor 6.5.2.1
# Normalized: r3:DSETVAR1
#
DISCID=99089f0d
DTITLE=Various Artist - Country and Western - Disc 2
DYEAR=1988
DGENRE=Country
TTITLE0=Dolly Party - Release Me
TTITLE1=Ray Pillow - How Do I Hide From A Memory
TTITLE2=Rex Allen Jr - Memory Train
TTITLE3=Frankie Lane - Sixteen Tons
TTITLE4=Eddie jones - Deep In The Heart Of Texas
TTITLE5=Donna Fargo - Sticks and Stones
TTITLE6=Roger Miller - King Of The Road
TTITLE7=Jerry Lee Lewis - Jackson
TTITLE8=Stu Stevens - Love Me Tender
TTITLE9=Ray Price - Rain and Tears
TTITLE10=Dolly Parton - Letter To Heaven
TTITLE11=Freddie - Oh, Lonesome Me
TTITLE12=T Astor - Devil
EXTD=Regal Fernseher Nr. 8
EXTT0=
EXTT1=
EXTT2=
EXTT3=
EXTT4=
EXTT5=
EXTT6=
EXTT7=
EXTT8=
EXTT9=
EXTT10=
EXTT11=
EXTT12=
PLAYORDER=
